<svg width="36" height="36" viewBox="0 0 36 36" fill="none" xmlns="http://www.w3.org/2000/svg">
<path fill-rule="evenodd" clip-rule="evenodd" d="M36 18L35.9995 19.8L35.9982 20.5455L35.9959 21.1174L35.9928 21.5995L35.9887 22.0241L35.9838 22.4078L35.9779 22.7604L35.9712 23.0884L35.9635 23.3963L35.955 23.6873L35.9455 23.9639L35.9352 24.2279L35.9239 24.4808L35.9117 24.724L35.8987 24.9583L35.8847 25.1846L35.8698 25.4037L35.854 25.6161L35.8373 25.8224L35.8197 26.023L35.8012 26.2183L35.7818 26.4087L35.7614 26.5945L35.7402 26.7759L35.718 26.9531L35.6949 27.1266L35.6709 27.2963L35.646 27.4625L35.6202 27.6254L35.5934 27.7851L35.5658 27.9418L35.5372 28.0955L35.5076 28.2465L35.4772 28.3947L35.4458 28.5403L35.4135 28.6835L35.3803 28.8242L35.3461 28.9626L35.311 29.0987L35.2749 29.2326L35.238 29.3644L35.2 29.4941L35.1611 29.6218L35.1213 29.7475L35.0805 29.8713L35.0388 29.9933L34.9961 30.1134L34.9525 30.2318L34.9079 30.3484L34.8623 30.4633L34.8157 30.5765L34.7682 30.6881L34.7197 30.7982L34.6703 30.9066L34.6198 31.0135L34.5684 31.1189L34.5159 31.2227L34.4625 31.3252L34.4081 31.4261L34.3526 31.5257L34.2962 31.6238L34.2387 31.7206L34.1803 31.816L34.1208 31.9101L34.0602 32.0029L33.9987 32.0943L33.9361 32.1845L33.8724 32.2734L33.8077 32.361L33.7419 32.4474L33.6751 32.5325L33.6072 32.6165L33.5382 32.6992L33.4682 32.7807L33.397 32.8611L33.3247 32.9402L33.2513 33.0182L33.1768 33.0951L33.1012 33.1708L33.0244 33.2454L32.9465 33.3189L32.8674 33.3913L32.7871 33.4625L32.7057 33.5327L32.6231 33.6018L32.5392 33.6698L32.4542 33.7367L32.3679 33.8025L32.2804 33.8673L32.1916 33.931L32.1015 33.9937L32.0102 34.0554L31.9175 34.116L31.8236 34.1756L31.7283 34.2341L31.6316 34.2917L31.5336 34.3482L31.4341 34.4037L31.3332 34.4582L31.2309 34.5117L31.1272 34.5642L31.0219 34.6157L30.9152 34.6663L30.8068 34.7158L30.697 34.7644L30.5855 34.812L30.4724 34.8586L30.3576 34.9043L30.2411 34.949L30.1229 34.9927L30.0029 35.0354L29.8811 35.0773L29.7575 35.1181L29.6319 35.158L29.5043 35.197L29.3748 35.235L29.2432 35.272L29.1094 35.3082L28.9735 35.3433L28.8353 35.3776L28.6948 35.4109L28.5518 35.4433L28.4064 35.4747L28.2584 35.5053L28.1076 35.5349L27.9541 35.5635L27.7977 35.5913L27.6382 35.6181L27.4756 35.644L27.3096 35.669L27.1402 35.6931L26.9671 35.7162L26.7901 35.7384L26.6091 35.7598L26.4237 35.7802L26.2337 35.7997L26.0388 35.8183L25.8386 35.8359L25.6328 35.8527L25.4209 35.8686L25.2023 35.8835L24.9766 35.8976L24.743 35.9107L24.5006 35.923L24.2484 35.9343L23.9854 35.9447L23.7099 35.9543L23.4201 35.9629L23.1137 35.9706L22.7874 35.9774L22.4369 35.9834L22.056 35.9884L21.6351 35.9925L21.1585 35.9957L20.5957 35.9981L19.8703 35.9995L18.5079 36L16.2732 35.9996L15.5057 35.9983L14.9242 35.9962L14.4365 35.9931L14.0081 35.9891L13.6215 35.9842L13.2667 35.9784L12.9369 35.9718L12.6275 35.9642L12.3353 35.9557L12.0576 35.9463L11.7927 35.936L11.5389 35.9248L11.295 35.9127L11.06 35.8997L10.8331 35.8858L10.6135 35.871L10.4005 35.8553L10.1938 35.8387L9.99275 35.8211L9.79703 35.8027L9.60627 35.7833L9.42016 35.7631L9.23843 35.7419L9.06082 35.7198L8.8871 35.6968L8.71709 35.6729L8.55059 35.648L8.38743 35.6223L8.22748 35.5956L8.07058 35.568L7.91661 35.5395L7.76545 35.51L7.617 35.4797L7.47115 35.4484L7.32781 35.4161L7.18691 35.383L7.04834 35.3489L6.91205 35.3138L6.77797 35.2779L6.64602 35.2409L6.51614 35.2031L6.38829 35.1643L6.26241 35.1245L6.13844 35.0838L6.01634 35.0422L5.89606 34.9996L5.77757 34.956L5.66082 34.9115L5.54578 34.866L5.4324 34.8195L5.32067 34.772L5.21054 34.7236L5.10198 34.6742L4.99497 34.6239L4.88947 34.5725L4.78547 34.5201L4.68294 34.4668L4.58185 34.4124L4.48218 34.3571L4.38391 34.3007L4.28703 34.2434L4.1915 34.185L4.09732 34.1255L4.00446 34.0651L3.9129 34.0036L3.82264 33.9411L3.73366 33.8775L3.64593 33.8129L3.55945 33.7472L3.47421 33.6805L3.39018 33.6127L3.30736 33.5438L3.22573 33.4738L3.14529 33.4027L3.06602 33.3305L2.98791 33.2572L2.91095 33.1828L2.83514 33.1073L2.76045 33.0306L2.68689 32.9527L2.61444 32.8737L2.5431 32.7936L2.47285 32.7122L2.40369 32.6297L2.33562 32.546L2.26862 32.461L2.20268 32.3748L2.13781 32.2874L2.07399 32.1987L2.01122 32.1088L1.94949 32.0175L1.8888 31.925L1.82913 31.8311L1.7705 31.7359L1.71288 31.6393L1.65627 31.5414L1.60068 31.4421L1.54609 31.3413L1.4925 31.2391L1.43991 31.1355L1.38831 31.0304L1.3377 30.9237L1.28807 30.8155L1.23942 30.7058L1.19175 30.5944L1.14505 30.4814L1.09932 30.3668L1.05456 30.2505L1.01076 30.1324L0.967915 30.0125L0.926031 29.8909L0.885101 29.7674L0.845123 29.6419L0.806094 29.5146L0.76801 29.3852L0.730871 29.2537L0.694673 29.1202L0.659413 28.9844L0.625091 28.8464L0.591703 28.7061L0.559248 28.5633L0.527724 28.4181L0.497128 28.2702L0.46746 28.1197L0.438717 27.9665L0.410897 27.8103L0.384 27.6511L0.358023 27.4887L0.332965 27.323L0.308824 27.1538L0.2856 26.981L0.263291 26.8044L0.241896 26.6236L0.221413 26.4386L0.201841 26.249L0.183181 26.0545L0.165429 25.8547L0.148586 25.6494L0.132651 25.438L0.117622 25.22L0.1035 24.9949L0.0902826 24.7619L0.07797 24.5202L0.0665613 24.2689L0.0560559 24.0067L0.0464534 23.7323L0.0377533 23.4438L0.029955 23.1387L0.0230583 22.8142L0.0170627 22.4658L0.011968 22.0876L0.00777392 21.6704L0.0044802 21.1991L0.00208672 20.6449L0.000593342 19.938L0 18.7183L0.000306662 16.3495L0.00151334 15.5579L0.00362011 14.9664L0.00662705 14.4728L0.0105343 14.0405L0.0153422 13.6511L0.0210507 13.294L0.0276604 12.9623L0.0351714 12.6515L0.0435843 12.358L0.0528993 12.0792L0.063117 11.8134L0.0742379 11.5587L0.0862625 11.3141L0.0991915 11.0784L0.113026 10.8509L0.127765 10.6307L0.143412 10.4173L0.159966 10.21L0.177427 10.0085L0.195799 9.81242L0.21508 9.62128L0.235272 9.43481L0.256377 9.25274L0.278395 9.0748L0.301327 8.90079L0.325176 8.73049L0.349941 8.56371L0.375625 8.4003L0.40223 8.24009L0.429755 8.08295L0.458204 7.92875L0.487578 7.77738L0.517878 7.62871L0.549106 7.48266L0.581264 7.33913L0.614355 7.19803L0.648379 7.05928L0.68334 6.92281L0.719239 6.78855L0.756078 6.65643L0.79386 6.5264L0.832588 6.39839L0.872264 6.27235L0.91289 6.14823L0.95447 6.02598L0.997005 5.90556L1.0405 5.78693L1.08496 5.67004L1.13038 5.55487L1.17677 5.44136L1.22413 5.32949L1.27247 5.21924L1.32178 5.11055L1.37208 5.00342L1.42337 4.89781L1.47564 4.79369L1.52891 4.69104L1.58318 4.58983L1.63846 4.49005L1.69474 4.39168L1.75203 4.29468L1.81034 4.19905L1.86968 4.10476L1.93004 4.01179L1.99144 3.92014L2.05388 3.82977L2.11737 3.74068L2.1819 3.65286L2.2475 3.56628L2.31416 3.48094L2.38189 3.39681L2.4507 3.3139L2.5206 3.23218L2.59159 3.15164L2.66369 3.07228L2.7369 2.99408L2.81122 2.91703L2.88668 2.84112L2.96327 2.76634L3.04101 2.69269L3.11991 2.62015L3.19998 2.54872L3.28123 2.47839L3.36367 2.40915L3.44731 2.34099L3.53217 2.2739L3.61825 2.20788L3.70558 2.14292L3.79416 2.07902L3.88401 2.01617L3.97515 1.95435L4.0676 1.89358L4.16136 1.83383L4.25645 1.77511L4.3529 1.71741L4.45073 1.66073L4.54995 1.60506L4.65058 1.55039L4.75265 1.49672L4.85618 1.44405L4.9612 1.39237L5.06773 1.34168L5.17579 1.29197L5.28541 1.24324L5.39664 1.1955L5.50949 1.14872L5.62399 1.10291L5.74019 1.05807L5.85813 1.01419L5.97783 0.971277L6.09934 0.929317L6.22271 0.888312L6.34798 0.848258L6.4752 0.809153L6.60442 0.770995L6.73571 0.73378L6.86911 0.697507L7.00469 0.662173L7.14252 0.627776L7.28267 0.594314L7.42522 0.561785L7.57026 0.530186L7.71788 0.499517L7.86816 0.469775L8.02122 0.440958L8.17717 0.413065L8.33614 0.386094L8.49826 0.360044L8.66368 0.334912L8.83256 0.310699L9.00507 0.287402L9.18142 0.26502L9.36181 0.243552L9.5465 0.222996L9.73574 0.203352L9.92984 0.184619L10.1291 0.166795L10.334 0.14988L10.5449 0.133872L10.7624 0.118772L10.9869 0.104577L11.2193 0.0912878L11.4602 0.0789031L11.7107 0.0674224L11.9719 0.0568452L12.2453 0.0471708L12.5327 0.0383988L12.8363 0.0305287L13.1592 0.0235602L13.5054 0.0174929L13.881 0.0123265L14.2946 0.00806065L14.7608 0.00469523L15.3068 0.00223007L15.9965 0.000665013L17.1202 0L19.5703 0.000234993L20.3887 0.00137L20.9908 0.00340509L21.4904 0.00634035L21.9268 0.0101759L22.3192 0.014912L22.6786 0.0205489L23.0121 0.0270868L23.3244 0.034526L23.6192 0.042867L23.899 0.0521102L24.1659 0.062256L24.4214 0.0733049L24.6667 0.0852576L24.9031 0.0981146L25.1313 0.111877L25.352 0.126544L25.566 0.142118L25.7737 0.1586L25.9756 0.175989L26.1721 0.194288L26.3637 0.213497L26.5505 0.233617L26.7329 0.254649L26.9111 0.276594L27.0855 0.299453L27.2561 0.323229L27.4231 0.347921L27.5868 0.373532L27.7472 0.400063L27.9046 0.427516L28.059 0.455891L28.2106 0.485191L28.3595 0.515417L28.5058 0.546571L28.6495 0.578655L28.7908 0.611671L28.9297 0.645621L29.0664 0.680507L29.2008 0.716331L29.3331 0.753096L29.4633 0.790803L29.5915 0.829456L29.7177 0.869056L29.8419 0.909606L29.9643 0.95111L30.0849 0.993569L30.2037 1.03699L30.3207 1.08137L30.436 1.12671L30.5496 1.17302L30.6616 1.22031L30.772 1.26857L30.8808 1.31781L30.9881 1.36803L31.0938 1.41923L31.1981 1.47143L31.3008 1.52462L31.4021 1.57881L31.502 1.634L31.6005 1.6902L31.6976 1.74742L31.7934 1.80565L31.8878 1.8649L31.9808 1.92519L32.0726 1.9865L32.1631 2.04886L32.2522 2.11226L32.3402 2.17671L32.4268 2.24222L32.5123 2.3088L32.5965 2.37644L32.6795 2.44517L32.7613 2.51498L32.842 2.58589L32.9214 2.6579L32.9997 2.73101L33.0769 2.80525L33.1529 2.88062L33.2277 2.95712L33.3015 3.03477L33.3741 3.11357L33.4456 3.19355L33.516 3.2747L33.5854 3.35705L33.6536 3.44059L33.7208 3.52535L33.7869 3.61134L33.8519 3.69857L33.9159 3.78705L33.9788 3.8768L34.0407 3.96784L34.1016 4.06017L34.1614 4.15383L34.2202 4.24882L34.278 4.34516L34.3348 4.44288L34.3905 4.54198L34.4453 4.6425L34.499 4.74446L34.5518 4.84787L34.6035 4.95277L34.6543 5.05917L34.7041 5.16711L34.7529 5.27662L34.8007 5.38771L34.8476 5.50043L34.8935 5.6148L34.9384 5.73087L34.9823 5.84866L35.0253 5.96822L35.0674 6.08959L35.1084 6.21281L35.1486 6.33792L35.1877 6.46499L35.226 6.59405L35.2633 6.72516L35.2996 6.85839L35.335 6.9938L35.3695 7.13145L35.403 7.27141L35.4356 7.41377L35.4673 7.55861L35.498 7.70601L35.5279 7.85608L35.5568 8.00892L35.5847 8.16464L35.6118 8.32336L35.6379 8.48522L35.6631 8.65037L35.6874 8.81897L35.7108 8.99118L35.7332 9.16722L35.7547 9.34728L35.7754 9.53162L35.7951 9.72049L35.8139 9.91419L35.8318 10.1131L35.8488 10.3175L35.8649 10.5279L35.88 10.7448L35.8943 10.9688L35.9077 11.2004L35.9201 11.4407L35.9317 11.6904L35.9423 11.9507L35.9521 12.2231L35.9609 12.5092L35.9688 12.8114L35.9759 13.1327L35.982 13.4769L35.9873 13.8498L35.9916 14.26L35.995 14.7213L35.9976 15.2593L35.9992 15.9331L36 16.9841L36 18Z" fill="#F9F9FA"/>
<rect x="10" y="11" width="16" height="2.82353" rx="1.41176" fill="#121143"/>
<rect x="10" y="16.5883" width="16" height="2.82353" rx="1.41176" fill="#121143"/>
<rect x="10" y="22.1765" width="16" height="2.82353" rx="1.41176" fill="#121143"/>
</svg>
